<svg xmlns="http://www.w3.org/2000/svg" viewBox="0 0 1826 516.62"><defs><style>.cls-1{isolation:isolate;}.cls-2{fill:#416424;opacity:0.2;mix-blend-mode:multiply;}</style></defs><title>shadow_layer_forest</title><g class="cls-1"><g id="shadow_layer"><path id="shadow_layer-2" data-name="shadow_layer" class="cls-2" d="M1873,658c-3.74,0-26.66-2-30.4-1.9l-2.44-16.65-6.07-14.63-2.57-9.09-1.39-7.86-5.24-37.59-11.48-38.91L1800.35,496l9.81-22.61,4.38-44.43-1-45.95-2.68-31.19,1.05-31.91L1801,318.74l-.14-.09-1.44,28.93-.38,28.3-3.93,47.42-2.39,41.33-1.78,13-9.33-15.81-33-72-17.71-41.05-10.09-16.82-4.18-22.19-26.78,6.14,1.6,16.91,8.21,18.62,16,31.2.32.82-8.26-6.71-44.82-35.32-8.8-30-11.37-2-21,7,10.07,39.86,16.7,35.94,11.72,33.06-5.28-2.8-29.25-13.06-3.72,7.48,27.52,18,19.28,9,12.69,20.3,27.53,30.07,12.32,12.8,5.94,16.07L1739,559.19l15.06,38.32,18,45.54,5.22,14.61a197.31,197.31,0,0,0-40.92,4.37l.11-.43,16.07-44.23-3-1.47-25.38,40.41-3.53,9.87-2.18.57-1.55-5.1-16-34.16-12.28-32.44-.32-1.36-12.2-37.46-.61-.82-4.69-10.23h-5.42l-2.72,11.63-.72,4.4-.15,0,11.44,63.4,6.16,36.17.94,16.46-.07.65q-5.6,2-11.17,3.84l1.36-1.73-2.75-6.67-13.26-45-22.88-71.25-25-88.17-21.19-77.2,1.62-3.58,12.2-32.46,8.64-33.24L1610,299l-8-2-7,22.48-9.2,33.12L1578.48,374l-16.68-35.6-4-7.18-.79-3.29-.7-4.29-.87-3.07-2.7-7.61-10.21-7-.75-.41h-20l-8.06,22.91,1.19,3.37-1.17,16,5.86,36.59,20.2,76.3,22.32,76.19,10.4,39.66-9.12-31.19-30.62-79.86-26.26-78.31L1488.08,339l-8.57-16-6-5.9-3.33-2.7-10.91-1.17-6.6,21.93,6.63,42,13,49.9-23.66-12.79-49.41-32-7.81-5.12-8.11-19.84-19.1-41-10.66-5.09-8.42,1-7.28,14.88,4.22,8.22-.19,6L1316,315.19l-7.56,2.65,2.07,7.17-1.6,26.45,0,0-13.75-13.19-3.23,1.54,17.57,33.16,1.86,34.81-1.73,53.75-10.49-33.37-12.25-43.43-12.57-36.5-6.16,1.38,12.94,72.51,25.75,80.11,4.63,12.79-4.31-6.26-31.38-54.4-21.58-42.08,0-1.3.94-43L1243,331.23l-3.59.79-.19,34.74.09,10.05-15.93-33.95-9.67,3.39,20.19,59.23,3.85,7.78.44,75.11-2.11,65.8-15.18-61.46-11-92.2-14-83.72-19.45,4.46,14.78,72.09,8.92,90.82,19.42,90.38L1231.92,660l4.53,41.47.16,16.14.9,12.75-1.92,0-11.16-26.72-16-39.53L1180.17,582l-.26-1-8.48-76.36-8.72-47.94-12.56-45.38-8.32-49.89-10.67-44.59-24.83,4.53-2.29-1.26-20.64,13.2,0,.5-2.51,10.26.66,18,2.41,21-30.38-10.81-20.08-8.46-1.34-6.36-6.32-21.53-22.58,2.56-.26,0,.44,9.75L978.1,332.51l-6,3.83,25.23,23.75-20.44,14.79L953.62,390l-29,16.62,9.16-17,11.36-19.49,10.23-15.85,2.51-2.67.44-2.93-4.33-3L933.66,366,914,401.89l-39.83,66.83L861.47,488l1.78-86.8-12.68-52.1-3-17.81-10.88,1.21-1.39,10.93-.17,0-21.87,26,3.13,22.92-2.77,36.5L812.24,445l-17.87-36.2-21.16-49.64-18.9-26-2.21,2.09,3.77,16.73L760.7,373l20.19,49.17,28.74,58.25-.16,36.09,1.67,40.65L809.24,599l-.81,55.72-12.88-8.07-3.15,2,13.53,23.68,2.19,3.19-.18,8.45.73,46.15L796.18,705l-3.08.7,9.3,42,9.28,19c-15.19-2.08-30.38-3.93-45.62-5a127.46,127.46,0,0,1-14.48-1.82l4.31-19.66-5.45-.58-5.57,18.8c-3.64-.9-7.22-2-10.77-3.18l.85-1.13,7.7-30-3.31-1.61-12.85,23.18-.91,2.25-.41-2.25-.32-1.81-2.45-19.22-3.22-23.54.16-.27-1.35-6-3.06-14.19H701.78l-3.85,5.92-5.12-6.28L686.65,655l-1.16-1-3.86-3.69-2.64.28-6,12.32-4.29,19.36-9.82,32.51-9.43,21.63c-9.89-.3-19.88-.2-29.81.11l5.44-1.55,8.22-13.29L631.23,709l-4.07-.89L617.68,718l-2,9.55-5.28-2.48.45-3.36,1.92-14L617.58,686l12.78-89.55,6.1-62.57,9.54-6.35L655.5,517l8.28-19.85-4.28-1.52-17.06,14.55L638.26,515l4.81-45.78,7.11-9.37,12.11-15.3L685,405.9l15.89-33.49,4.83-33.28-2.71-.29-16.19,34L668.68,405l-22.1,36.51,3.52-23.59,8.61-48.19L655.14,324h-3.42l-15.53,38.65-10,43.8-.76,4.06-10.27-21.64,4.95-14.56,6.9-22.73,2-19.28-3-.67L610.34,368l-1.19,3.13-18.46-46.37L588,326.35l9.63,58.89,3,7.34L593,409.82,571.74,450l-1,1.56,3-17L581,384l1-21-1.85-20.53h-2.87l-12,35.46-11,41.73L537.7,502.56l-23.78,82.69-15,39.6-4.5-.5-15.6,9.39,6.14-37,17.74-103.57,13.61-7.68,7.47-6.38,3.24-8.47-3.67-4-10,1.24-7.09,4L512,438.11l6.6-43.18-1.21-46.57H491l-18.39,38.19-10.06,40-14.44,77.88L433.87,584.7l6.49-114.82.76-5.9,3.62-44,.4-37.56,18.68-25.51,11.2-17.2,4.69-16.43L460,335.13,443.37,354.7l-.43-3.11L437.25,333l-10.53-1.15-10.59,37.93.67,16.28-20.59,24.89-33.63,40.49L351,462.53l.29-4L354.13,412l1.8-29.17,1.25-34.09-6-14.15L346.87,332l-1.78-.54L341,329.93l-8.24,3.65-.19.71-1.48,1-2.82,3.41-4.75,12.47-7.54,30-3.19,23.78-19.59-14.57-10.95-8.57.18-64-16.26,1.74-6,14.5L255,351.33l-1.78,5.88L232.58,335,228,337.2,250.83,365l-6,20.6-11.74,78.3-9.3-29.76-8-28.23.18-4.2-.57-18,.68-11.62-1.76-2.39-.14-2,.33-34.94-10.78-2.43-7.88,38.07.67,5.94,1.83,15.5.54,8.85-1.54,45.47-10.45,88.64-5.5,42.53-9.12,45-3.51,40.39.16,9.68-.45-.17c-1-.38-2.1-.72-3.15-1.07l-2.94-10.25-12.16-11-4.27,2,2.9,14.74.47.57c-13.43-2.38-28-3.05-42-3.24l1.07-8.26,7.37-45,1.42-7.82,5.91-7.08L142,570l-7.19-6.77-11.48,5.42,10.51-51,17.59-90.26,6.08-38.87,5.22-21.69-2.84-44.38-4.41-19.55H139.17l-15.49,37.58L113,380.72l-19.7,81L61.53,621.05l-4,35.18-.79,5.15c-3.24.26-7.25-3.28-9.78-2.38l2,104c16.78,0,37,2.43,53.63,3.6,38.87,2.72,76.31,9.87,114.27,16.69,37.8,6.8,72.8,8.8,111.35,11.42,38.95,2.65,77.7,8.91,116.69,10.83,33.16,1.64,67.43-.68,100.72-.92,29.2-.21,57.53.52,86.68,1.21,17.44.41,34.93-1.23,52.39-1.28,23.23-.07,44.54,4,67.51,5.77,67.6,5.31,138.63,3.12,206.46.92,66.55-2.16,133.07-.27,199.62.12,40,.23,79.92-2.21,120-2.27,35.31-.05,69,1.44,104.23-2.23,82-8.53,159.29-30.9,242.89-24.49,82.49,6.33,165.31-20,247.6-20.37M456.13,697.63,460,659.31l3.08-23.65,14.51-11.87,3.58-5.39-9.83,29.23-12.16,39.16-3.06,11ZM163.45,654.07l5.19-41.45L177,539.83l1.86-18.1,2.71-26.27,5.11-43.52,2.73-18.26,4.55-32.6,10.92,31.8L210,452.34,189.17,609.58,181.64,663l-.21,2.15a121.58,121.58,0,0,1-18.13-6.27Zm47.79,28.6,3-13.23,8.14-46.91,13.4-78.28,11.25-10.46L259.77,512l-8-4.43-11.37,7.52,11.17-82.39L262.35,339l.14-.9,0,0L295,365.86l-1.74,41.31L278.56,608.91l-6,55.27-.64,8.4-10.37-16.44-7.14,2.75,11.47,24.46C249.74,684.13,225.49,689.18,211.24,682.67Zm98.44-.31.18-2.08,1.8.09,8.43-8.61,1.25-13.25-8.58-5.1-.29.06,4.45-33.1,10.76-103.25,6.17-80.35,16.56-14.34L385.89,385,404,363.91l.2,4.45L405,389l-1.91,17.09L396,493.6l-6.83,81.26-3.94-6-18.33-24.69-9.63,3.7,13.95,26.85,16.32,18-6.28,76.53-.49,8.21L368,660.39l-13.1,7L367,686.57C347.93,682.37,328.92,682,309.68,682.36ZM470,723c-2.2-1-4.42-2-6.64-3l20.51-47.88,34-93.92,29-93.85,6.79-34.75,8.43-13.16,13.08-23.65,20.54-46.43,3.32-8.95,13.57,31.2-8.26,66.88-8,71.77-4.92,17.2-6.56,39.1-6.6,79.83L573,721l-6-18.47-9.84-25.12-6.68.83,5.81,25.44,11.46,24.12,4.81.8v.16c-7.79.44-15.42.85-22.81,1.1C525.86,730.62,492.2,733.29,470,723ZM1794.39,489.35,1778.65,460l-5.26-9.13-6.14-7.59-22.35-28.07-22.22-29.74L1708,347.32l-16.71-46.9,29.12,27.28,26.24,29,1.9,2.72,21.3,51.6,19.29,35.39,15.7,38.33,21.79,82.47,8.94,44.22,4.79,9.24.16,2,4.45,14.82c-3.3.22-6.6.42-9.89.57l-13.25-60-16.61-42.94Zm-73.71,148.77-.76-.28-.16-1.68,0-.45ZM1381.79,402.67l8.6,33.56-11.06-1-6,7.15,9.49,13.11,11.72,4.91,2.07.08,17.6,65.58,12.94,52.06,7.76,37.61,13.81,94.58q-8.28.43-16.53.5l-10.17-25.77-17.62-40.65-36.74-86.86L1356.79,528l-1.17-5-1-.86-21.72-64.24,2.32-4.89,4.44-94.85-.73-14.57,8.74,11.62,25.52,37Zm-22.54-91.08,2.93,8.58,4.22,24.51,4.88,18.25-9.75-13.34-25.18-32.77L1333,300Zm-321,14.84-.07-1.22,8,3.56,42,16.61,2.92,1.12,1.54,8.85,16.65,94.14,10.64,62.76-2.49-1.62-4.88,4.45,10,12,19.31,113.3,8.39,54.31,6.28,32.12-2.57.44-6.19-10.09-22.58-24.64-5.07,3.57,17,28.45,4.4,5c-25.93,5.26-51.08,12.75-73.36,22.76l2.19-13.43.92-51.62-2.29-.57L1058.82,736l-2.89,10.65.11-3.33-1.71-23.8-7-47.08-6-97.51-4.63-98.1,3.06-99ZM982,776.66c-24.54-1.47-48.68-2.62-73.27-3.51-12.31-.44-24.58-1.56-36.83-3L875.7,764l12.77-17.79,12.85-22.39,7.59-42.16h-2.3l-17.15,30,2-13.89,6.78-43.22-.55-39-2.17.26-2.39,17.84-3.36,22.86-9.45,39.85L870,734.74l-3.18,10.7-4,6.81L865.48,724l1.2-53.62-6.06-109.71-1.36-82,20.1-35.27,30.45-58,2.87-5.78,9-3.1,46.85-33.34,36.67-36.1,3.85,2.53,2.63,12.26-.05,1.46-1.3,48.95L1008.84,471l9,95.75,1.77,75.91-4.22-3.72-2.83-.78L990.1,522.33l-10,1.23L998.81,650l12.15,61.5,5.71,18.52,2.51,15.62.51,2.47,2.07,23.11,1.06.84A117.68,117.68,0,0,1,982,776.66Zm351.88-55.41c-16.44,3.49-38.52,11-55.31,6.4-1.14-.32-2.19-.64-3.21-1l3.91-1,7.39-24.49.47-26.7-8.69-1-5.15,23.4-1.7,20.06-.24-2.24-3.09-49.41-5.09-104L1265,457.11l-1.66-60.51,10.87,20.24,36.41,60.94,18.74,27.69,5.43,8.54L1386,639.61l23,48.75,3.24,9.26-8-9-18-13.2-2.56,2.33,12.71,16.6,17.75,14.44,2.22.52L1417,711C1388.49,711.55,1363.06,715,1333.83,721.25Zm171.23-16.74,9.42-15.12-6.18-11,2-41.41h-5.9l-5.34,27-4.81-9.37-15.74-43.79L1452.23,527l-19.63-88.46-19.73-87.76,81.25,49.68,5.32,16.38,32.84,89.54,7,25.33-20.5-8.65-3.44,2.39,14.2,18.2,15.08,8.11,13.74,46.19,23.6,57.22-5.41-5.76-20.31-21.19-20.06-18.82-3.32,1.74,11.16,22,18.6,22.68,34.59,34.43.12.29c-13.63,2.62-27.52,4.86-41.87,6.78C1538.91,699.51,1522,702.15,1505.06,704.51Z" transform="translate(-47 -297)"/></g></g></svg>