<svg id="Layer_1" data-name="Layer 1" xmlns="http://www.w3.org/2000/svg" viewBox="0 0 81.79 66.88"><defs><style>.cls-1{fill:#fff;}.cls-2{fill:#ad4a28;}.cls-3{opacity:0.2;}.cls-4{fill:#622009;}.cls-5{fill:#efc359;}</style></defs><title>cannon</title><path class="cls-1" d="M1042.58,482.74c-.49.84-1.2,1.34-1.59,1.11s-.32-1.09.17-1.93,1.2-1.34,1.59-1.11S1043.07,481.9,1042.58,482.74Z" transform="translate(-961.21 -480.75)"/><g id="stand"><path class="cls-2" d="M963.58,546.93c-1.06,0-2-1.64-2-3.71s.76-3.78,1.82-3.8l3.81-.1,10.46-24c.07-.15.16-.23.26-.23l9.84-.25c.14,0,.27.15.33.39a1.3,1.3,0,0,1,0,.76l-9.19,23.06c.9.3,1.62,1.82,1.66,3.66.06,2.07-.76,3.78-1.81,3.81Z" transform="translate(-961.21 -480.75)"/><path class="cls-3" d="M978.87,539l7.07-18.06-3.65.49-4.64,12.29-3.07-9.51-.55.75-2.75,6c.93,3,3.13,9.22,5.77,11.84l-13.78.35s-1-.18-1-2.73a2.14,2.14,0,0,0-.36.42,6.46,6.46,0,0,0-.35,2.35c0,2.1.95,3.8,2,3.77l15.14-.38c1,0,1.87-1.77,1.81-3.87a5.84,5.84,0,0,0-.78-2.95l-.16-.08,0-.08A1.7,1.7,0,0,0,978.87,539Z" transform="translate(-961.21 -480.75)"/><path class="cls-4" d="M987.78,515.57l-9.64,24.18h.41c.85,0,1.58,1.32,1.63,3s-.62,3.07-1.48,3.09l-15.14.39c-.86,0-1.59-1.33-1.63-3s.62-3.07,1.48-3.09l4-.1,10.57-24.2,9.84-.25Zm0-1.41-9.84.25c-.2,0-.38.18-.51.47L967,538.62l-3.65.09c-1.25,0-2.22,2.06-2.16,4.52s1.13,4.43,2.39,4.4l15.14-.38c1.25,0,2.21-2.06,2.15-4.52a5.72,5.72,0,0,0-1.41-4l8.87-22.26a2.62,2.62,0,0,0,.06-1.5c-.13-.49-.39-.8-.67-.8Z" transform="translate(-961.21 -480.75)"/><path class="cls-1" d="M971.17,534.82l-1.78,4.42c-.11.27-.32.31-.46.08h0a1.1,1.1,0,0,1-.06-.91l1.78-4.42c.11-.27.32-.31.46-.08h0A1.11,1.11,0,0,1,971.17,534.82Z" transform="translate(-961.21 -480.75)"/></g><g id="canon_head" data-name="canon head"><path class="cls-2" d="M973.15,517.14a15.31,15.31,0,0,1-5.25-21,18.3,18.3,0,0,1,7.79-6.61c9.7-4.08,22.08.78,31.12,4.33.2.07,19.58,6.81,25.41,6.15a.43.43,0,0,1,.27.06l.07.06a.41.41,0,0,1,.13.33l-1.18,14.65a.42.42,0,0,1-.19.32.44.44,0,0,1-.37,0c-2.62-.94-6.38-.44-9.39,0-.71.1-1.37.19-2,.25-5,.53-10.46,1.41-16.63,2.69C994.27,520.2,982.37,522.66,973.15,517.14Z" transform="translate(-961.21 -480.75)"/><path class="cls-3" d="M1031.32,515.45a.42.42,0,0,0,.19-.32l0-.31-.42-1.53-.37-2.1c-.09-.35-6.48-.41-7.23-.43-2.43-.08-4.87-.07-7.3.05-5.66.28-11.09,1.5-16.68,2.23,0,0,1.17-14.74-14.39-18.39,0,0-9.3-1.28-14.87,2.16a11.41,11.41,0,0,1,1.13-4.57,16.26,16.26,0,0,0-3.51,3.92,15.31,15.31,0,0,0,5.25,21c9.22,5.52,21.12,3.06,29.81,1.26,6.17-1.28,11.61-2.16,16.63-2.69.6-.06,1.26-.15,2-.25,3-.4,6.77-.9,9.39,0A.44.44,0,0,0,1031.32,515.45Z" transform="translate(-961.21 -480.75)"/><path class="cls-4" d="M1032.27,500.45l-1.18,14.65c-3.35-1.19-8.36-.14-11.54.19-5.62.6-11.15,1.55-16.68,2.7-9.52,2-20.63,4.11-29.5-1.21a14.88,14.88,0,0,1-5.11-20.41,17.83,17.83,0,0,1,7.59-6.43c9.55-4,21.89.83,30.83,4.34,0,0,19.59,6.84,25.59,6.17Zm.43-.72a.85.85,0,0,0-.52-.12c-5.76.65-25-6.06-25.23-6.13-9.1-3.57-21.57-8.47-31.42-4.31a18.76,18.76,0,0,0-8,6.77,15.74,15.74,0,0,0,5.4,21.56c9.36,5.61,21.35,3.12,30.1,1.31a166.73,166.73,0,0,1,16.6-2.68l2-.25c3-.39,6.67-.89,9.2,0a.85.85,0,0,0,1.12-.72l1.18-14.65a.84.84,0,0,0-.26-.67.44.44,0,0,0-.15-.12Z" transform="translate(-961.21 -480.75)"/><path class="cls-5" d="M1031.74,517.84a2.48,2.48,0,0,1-1.2-2.29l1-15.29a2.47,2.47,0,0,1,2.63-2.3,2.5,2.5,0,0,1,1.1.35,2.45,2.45,0,0,1,1.19,2.29l-1,15.29a2.4,2.4,0,0,1-.84,1.69,2.44,2.44,0,0,1-1.79.6A2.36,2.36,0,0,1,1031.74,517.84Z" transform="translate(-961.21 -480.75)"/><path class="cls-3" d="M1035.31,515.88l1-15.3a2.46,2.46,0,0,0-1.2-2.28,2.06,2.06,0,0,0-.26-.12,2.52,2.52,0,0,1,.13.95l-1,15.3a2.46,2.46,0,0,1-2.63,2.29,2.5,2.5,0,0,1-.84-.23,2.53,2.53,0,0,0,1.07,1.34,2.49,2.49,0,0,0,1.1.34,2.46,2.46,0,0,0,2.63-2.29Z" transform="translate(-961.21 -480.75)"/><path class="cls-4" d="M1035.1,498.67a2.06,2.06,0,0,1,1,1.9l-1,15.29a2.06,2.06,0,0,1-2.18,1.91,2.16,2.16,0,0,1-.92-.29,2.07,2.07,0,0,1-1-1.9l1-15.29a2,2,0,0,1,2.18-1.91,2.08,2.08,0,0,1,.91.29Zm.44-.72h0a3,3,0,0,0-1.29-.4,2.83,2.83,0,0,0-2.1.7,2.87,2.87,0,0,0-1,2l-1,15.29a2.88,2.88,0,0,0,1.39,2.68,3,3,0,0,0,1.29.4,2.89,2.89,0,0,0,3.08-2.68l1-15.3a2.87,2.87,0,0,0-1.39-2.67Z" transform="translate(-961.21 -480.75)"/><path class="cls-5" d="M1013.45,518.13a2.16,2.16,0,0,1-1.05-2l1.12-19.09a2.11,2.11,0,0,1,.71-1.48,2.14,2.14,0,0,1,1.56-.55,2.1,2.1,0,0,1,1,.31,2.16,2.16,0,0,1,1.05,2l-1.12,19.09a2.12,2.12,0,0,1-.72,1.48,2.06,2.06,0,0,1-1.55.54A2.08,2.08,0,0,1,1013.45,518.13Z" transform="translate(-961.21 -480.75)"/><path class="cls-4" d="M1016.56,495.71a1.76,1.76,0,0,1,.84,1.59l-1.12,19.08a1.72,1.72,0,0,1-1.83,1.63,1.63,1.63,0,0,1-.79-.24,1.74,1.74,0,0,1-.84-1.59l1.11-19.09a1.75,1.75,0,0,1,1.84-1.63,1.83,1.83,0,0,1,.79.25Zm.43-.72h0a2.47,2.47,0,0,0-1.18-.36,2.56,2.56,0,0,0-2.71,2.41L1012,516.13a2.59,2.59,0,0,0,1.25,2.36,2.57,2.57,0,0,0,3.89-2.06l1.11-19.09A2.55,2.55,0,0,0,1017,495Z" transform="translate(-961.21 -480.75)"/><path class="cls-4" d="M1016.38,497.6a.74.74,0,1,1-1.47-.08.73.73,0,0,1,.78-.69A.74.74,0,0,1,1016.38,497.6Z" transform="translate(-961.21 -480.75)"/><path class="cls-4" d="M1016.21,500.54a.73.73,0,0,1-.78.69.72.72,0,0,1-.69-.77.74.74,0,0,1,.78-.7A.75.75,0,0,1,1016.21,500.54Z" transform="translate(-961.21 -480.75)"/><path class="cls-4" d="M1016,503.48a.75.75,0,0,1-.78.69.73.73,0,0,1-.69-.78.74.74,0,0,1,1.47.09Z" transform="translate(-961.21 -480.75)"/><path class="cls-4" d="M1015.86,506.41a.73.73,0,1,1-1.46-.08.73.73,0,1,1,1.46.08Z" transform="translate(-961.21 -480.75)"/><path class="cls-4" d="M1015.69,509.35a.73.73,0,0,1-1.46-.08.73.73,0,1,1,1.46.08Z" transform="translate(-961.21 -480.75)"/><path class="cls-4" d="M1015.52,512.29a.74.74,0,0,1-1.47-.09.75.75,0,0,1,.78-.69A.73.73,0,0,1,1015.52,512.29Z" transform="translate(-961.21 -480.75)"/><path class="cls-4" d="M1015.35,515.23a.74.74,0,1,1-1.47-.09.74.74,0,0,1,1.47.09Z" transform="translate(-961.21 -480.75)"/><path class="cls-5" d="M980.94,522.11a3.17,3.17,0,0,1-1.53-2.89l1.75-30a3.15,3.15,0,1,1,6.28.37l-1.75,30a3.14,3.14,0,0,1-4.75,2.52Z" transform="translate(-961.21 -480.75)"/><path class="cls-3" d="M985.48,519.54l1.75-30a3.15,3.15,0,0,0-1.53-2.89,3.22,3.22,0,0,0-.74-.31,3.09,3.09,0,0,1,.43,1.77l-1.75,30a3.13,3.13,0,0,1-1,2.17,3.12,3.12,0,0,1-3,.67,3.21,3.21,0,0,0,1.09,1.11,3.15,3.15,0,0,0,4.76-2.52Z" transform="translate(-961.21 -480.75)"/><path class="cls-4" d="M985.7,487.05a2.72,2.72,0,0,1,1.32,2.5l-1.74,30a2.73,2.73,0,0,1-2.88,2.56,2.77,2.77,0,0,1-1.25-.38,2.74,2.74,0,0,1-1.32-2.5l1.75-30a2.73,2.73,0,0,1,2.88-2.56,2.7,2.7,0,0,1,1.24.38Zm.43-.72h0a3.7,3.7,0,0,0-1.62-.5,3.58,3.58,0,0,0-3.77,3.35l-1.74,30a3.56,3.56,0,0,0,1.72,3.27,3.7,3.7,0,0,0,1.63.5,3.56,3.56,0,0,0,2.57-.9,3.47,3.47,0,0,0,1.19-2.46l1.75-30a3.55,3.55,0,0,0-1.73-3.27Z" transform="translate(-961.21 -480.75)"/><path class="cls-4" d="M985.42,490a1.16,1.16,0,0,1-2.31-.14,1.16,1.16,0,1,1,2.31.14Z" transform="translate(-961.21 -480.75)"/><path class="cls-4" d="M985.15,494.65a1.15,1.15,0,1,1-1.08-1.22A1.15,1.15,0,0,1,985.15,494.65Z" transform="translate(-961.21 -480.75)"/><path class="cls-4" d="M984.89,499.27a1.16,1.16,0,1,1-2.31-.13,1.15,1.15,0,0,1,1.22-1.09A1.16,1.16,0,0,1,984.89,499.27Z" transform="translate(-961.21 -480.75)"/><path class="cls-4" d="M984.62,503.89a1.16,1.16,0,1,1-2.31-.13,1.15,1.15,0,0,1,1.22-1.09A1.16,1.16,0,0,1,984.62,503.89Z" transform="translate(-961.21 -480.75)"/><path class="cls-4" d="M984.35,508.51a1.16,1.16,0,1,1-1.09-1.22A1.15,1.15,0,0,1,984.35,508.51Z" transform="translate(-961.21 -480.75)"/><path class="cls-4" d="M984.08,513.13A1.16,1.16,0,1,1,983,511.9,1.16,1.16,0,0,1,984.08,513.13Z" transform="translate(-961.21 -480.75)"/><path class="cls-4" d="M983.81,517.74a1.16,1.16,0,1,1-1.09-1.22A1.15,1.15,0,0,1,983.81,517.74Z" transform="translate(-961.21 -480.75)"/><path class="cls-1" d="M983.76,488.17c-.53.23-1,.22-1.16,0s.23-.64.76-.87,1-.22,1.16,0S984.29,487.93,983.76,488.17Z" transform="translate(-961.21 -480.75)"/><path class="cls-1" d="M1015.2,496.57c-.28.16-.58.18-.65.05s.1-.37.38-.53.58-.18.66,0S1015.49,496.42,1015.2,496.57Z" transform="translate(-961.21 -480.75)"/><path class="cls-1" d="M1029.67,502.23l-5.08-1a.53.53,0,0,1-.42-.62h0a.54.54,0,0,1,.62-.41l5.08,1a.52.52,0,0,1,.41.61h0A.52.52,0,0,1,1029.67,502.23Z" transform="translate(-961.21 -480.75)"/><path class="cls-1" d="M994.56,492l-5-1.17a.52.52,0,0,1-.39-.63h0a.54.54,0,0,1,.63-.4l5,1.18a.53.53,0,0,1,.4.63h0A.53.53,0,0,1,994.56,492Z" transform="translate(-961.21 -480.75)"/></g></svg>