<svg id="Layer_1" data-name="Layer 1" xmlns="http://www.w3.org/2000/svg" viewBox="0 0 27.28 33.47"><defs><style>.cls-1{fill:#ad4a28;}.cls-2{opacity:0.2;}.cls-3{fill:#622009;}.cls-4{fill:#fff;}</style></defs><title>canon_base</title><g id="stand"><path class="cls-1" d="M793.58,596.93c-1.06,0-2-1.64-2-3.71s.76-3.78,1.82-3.8l3.81-.1,10.46-24c.07-.15.16-.23.26-.23l9.84-.25c.14,0,.27.15.33.39a1.3,1.3,0,0,1,0,.76l-9.19,23.06c.9.3,1.62,1.82,1.66,3.66.06,2.07-.76,3.78-1.81,3.81Z" transform="translate(-791.21 -564.16)"/><path class="cls-2" d="M808.87,589l7.07-18.06-3.65.49-4.64,12.29-3.07-9.51-.55.75-2.75,6c.93,3,3.13,9.22,5.77,11.84l-13.78.35s-1-.18-1-2.73a2.14,2.14,0,0,0-.36.42,6.46,6.46,0,0,0-.35,2.35c0,2.1.95,3.8,2,3.77l15.14-.38c1,0,1.87-1.77,1.81-3.87a5.84,5.84,0,0,0-.78-2.95l-.16-.08,0-.08A1.7,1.7,0,0,0,808.87,589Z" transform="translate(-791.21 -564.16)"/><path class="cls-3" d="M817.78,565.57l-9.64,24.18h.41c.85,0,1.58,1.32,1.63,3s-.62,3.07-1.48,3.09l-15.14.39c-.86,0-1.59-1.33-1.63-3s.62-3.07,1.48-3.09l4-.1,10.57-24.2,9.84-.25Zm0-1.41-9.84.25c-.2,0-.38.18-.51.47L797,588.62l-3.65.09c-1.25,0-2.22,2.06-2.16,4.52s1.13,4.43,2.39,4.4l15.14-.38c1.25,0,2.21-2.06,2.15-4.52a5.72,5.72,0,0,0-1.41-4l8.87-22.26a2.62,2.62,0,0,0,.06-1.5c-.13-.49-.39-.8-.67-.8Z" transform="translate(-791.21 -564.16)"/><path class="cls-4" d="M801.17,584.82l-1.78,4.42c-.11.27-.32.31-.46.08h0a1.1,1.1,0,0,1-.06-.91l1.78-4.42c.11-.27.32-.31.46-.08h0A1.11,1.11,0,0,1,801.17,584.82Z" transform="translate(-791.21 -564.16)"/></g></svg>