<svg id="Layer_1" data-name="Layer 1" xmlns="http://www.w3.org/2000/svg" viewBox="0 0 71.63 37.15"><defs><style>.cls-1{fill:#ad4a28;}.cls-2{opacity:0.2;}.cls-3{fill:#622009;}.cls-4{fill:#efc359;}.cls-5{fill:#fff;}</style></defs><title>canon_head</title><g id="canon_head" data-name="canon head"><path class="cls-1" d="M965.15,553.14a15.31,15.31,0,0,1-5.25-21,18.3,18.3,0,0,1,7.79-6.61c9.7-4.08,22.08.78,31.12,4.33.2.07,19.58,6.81,25.41,6.15a.43.43,0,0,1,.27.06l.07.06a.41.41,0,0,1,.13.33l-1.18,14.65a.42.42,0,0,1-.19.32.44.44,0,0,1-.37,0c-2.62-.94-6.38-.44-9.39,0-.71.1-1.37.19-2,.25-5,.53-10.46,1.41-16.63,2.69C986.27,556.2,974.37,558.66,965.15,553.14Z" transform="translate(-957.31 -521.83)"/><path class="cls-2" d="M1023.32,551.45a.42.42,0,0,0,.19-.32l0-.31-.42-1.53-.37-2.1c-.09-.35-6.48-.41-7.23-.43-2.43-.08-4.87-.07-7.3,0-5.66.28-11.09,1.5-16.68,2.23,0,0,1.17-14.74-14.39-18.39,0,0-9.3-1.28-14.87,2.16a11.41,11.41,0,0,1,1.13-4.57,16.26,16.26,0,0,0-3.51,3.92,15.31,15.31,0,0,0,5.25,21c9.22,5.52,21.12,3.06,29.81,1.26,6.17-1.28,11.61-2.16,16.63-2.69.6-.06,1.26-.15,2-.25,3-.4,6.77-.9,9.39,0A.44.44,0,0,0,1023.32,551.45Z" transform="translate(-957.31 -521.83)"/><path class="cls-3" d="M1024.27,536.45l-1.18,14.65c-3.35-1.19-8.36-.14-11.54.19-5.62.6-11.15,1.55-16.68,2.7-9.52,2-20.63,4.11-29.5-1.21a14.88,14.88,0,0,1-5.11-20.41,17.83,17.83,0,0,1,7.59-6.43c9.55-4,21.89.83,30.83,4.34,0,0,19.59,6.84,25.59,6.17Zm.43-.72a.85.85,0,0,0-.52-.12c-5.76.65-25-6.06-25.23-6.13-9.1-3.57-21.57-8.47-31.42-4.31a18.76,18.76,0,0,0-8,6.77,15.74,15.74,0,0,0,5.4,21.56c9.36,5.61,21.35,3.12,30.1,1.31a166.73,166.73,0,0,1,16.6-2.68l2-.25c3-.39,6.67-.89,9.2,0a.85.85,0,0,0,1.12-.72l1.18-14.65a.84.84,0,0,0-.26-.67.44.44,0,0,0-.15-.12Z" transform="translate(-957.31 -521.83)"/><path class="cls-4" d="M1023.74,553.84a2.48,2.48,0,0,1-1.2-2.29l1.05-15.29a2.47,2.47,0,0,1,2.63-2.3,2.5,2.5,0,0,1,1.1.35,2.45,2.45,0,0,1,1.19,2.29l-1,15.29a2.4,2.4,0,0,1-.84,1.69,2.44,2.44,0,0,1-1.79.6A2.36,2.36,0,0,1,1023.74,553.84Z" transform="translate(-957.31 -521.83)"/><path class="cls-2" d="M1027.31,551.88l1-15.3a2.46,2.46,0,0,0-1.2-2.28,2.06,2.06,0,0,0-.26-.12,2.52,2.52,0,0,1,.13,1l-1,15.3a2.46,2.46,0,0,1-2.63,2.29,2.5,2.5,0,0,1-.84-.23,2.53,2.53,0,0,0,1.07,1.34,2.49,2.49,0,0,0,1.1.34,2.46,2.46,0,0,0,2.63-2.29Z" transform="translate(-957.31 -521.83)"/><path class="cls-3" d="M1027.1,534.67a2.06,2.06,0,0,1,1,1.9l-1,15.29a2.06,2.06,0,0,1-2.18,1.91,2.16,2.16,0,0,1-.92-.29,2.07,2.07,0,0,1-1-1.9l1-15.29a2,2,0,0,1,2.18-1.91,2.08,2.08,0,0,1,.91.29Zm.44-.72h0a3,3,0,0,0-1.29-.4,2.83,2.83,0,0,0-2.1.7,2.87,2.87,0,0,0-1,2l-1,15.29a2.88,2.88,0,0,0,1.39,2.68,3,3,0,0,0,1.29.4,2.89,2.89,0,0,0,3.08-2.68l1-15.3a2.87,2.87,0,0,0-1.39-2.67Z" transform="translate(-957.31 -521.83)"/><path class="cls-4" d="M1005.45,554.13a2.16,2.16,0,0,1-1.05-2l1.12-19.09a2.11,2.11,0,0,1,.71-1.48,2.14,2.14,0,0,1,1.56-.55,2.1,2.1,0,0,1,1,.31,2.16,2.16,0,0,1,1.05,2l-1.12,19.09a2.12,2.12,0,0,1-.72,1.48,2.06,2.06,0,0,1-1.55.54A2.08,2.08,0,0,1,1005.45,554.13Z" transform="translate(-957.31 -521.83)"/><path class="cls-3" d="M1008.56,531.71a1.76,1.76,0,0,1,.84,1.59l-1.12,19.08a1.72,1.72,0,0,1-1.83,1.63,1.63,1.63,0,0,1-.79-.24,1.74,1.74,0,0,1-.84-1.59l1.11-19.09a1.75,1.75,0,0,1,1.84-1.63,1.83,1.83,0,0,1,.79.25Zm.43-.72h0a2.47,2.47,0,0,0-1.18-.36,2.56,2.56,0,0,0-2.71,2.41L1004,552.13a2.59,2.59,0,0,0,1.25,2.36,2.57,2.57,0,0,0,3.89-2.06l1.11-19.09A2.55,2.55,0,0,0,1009,531Z" transform="translate(-957.31 -521.83)"/><path class="cls-3" d="M1008.38,533.6a.74.74,0,1,1-1.47-.08.73.73,0,0,1,.78-.69A.74.74,0,0,1,1008.38,533.6Z" transform="translate(-957.31 -521.83)"/><path class="cls-3" d="M1008.21,536.54a.73.73,0,0,1-.78.69.72.72,0,0,1-.69-.77.74.74,0,0,1,.78-.7A.75.75,0,0,1,1008.21,536.54Z" transform="translate(-957.31 -521.83)"/><path class="cls-3" d="M1008,539.48a.75.75,0,0,1-.78.69.73.73,0,0,1-.69-.78.74.74,0,0,1,1.47.09Z" transform="translate(-957.31 -521.83)"/><path class="cls-3" d="M1007.86,542.41a.73.73,0,1,1-1.46-.08.73.73,0,1,1,1.46.08Z" transform="translate(-957.31 -521.83)"/><path class="cls-3" d="M1007.69,545.35a.73.73,0,1,1-1.46-.08.73.73,0,1,1,1.46.08Z" transform="translate(-957.31 -521.83)"/><path class="cls-3" d="M1007.52,548.29a.74.74,0,0,1-1.47-.09.75.75,0,0,1,.78-.69A.73.73,0,0,1,1007.52,548.29Z" transform="translate(-957.31 -521.83)"/><path class="cls-3" d="M1007.35,551.23a.74.74,0,1,1-1.47-.09.74.74,0,0,1,1.47.09Z" transform="translate(-957.31 -521.83)"/><path class="cls-4" d="M972.94,558.11a3.17,3.17,0,0,1-1.53-2.89l1.75-30a3.15,3.15,0,1,1,6.28.37l-1.75,30a3.14,3.14,0,0,1-4.75,2.52Z" transform="translate(-957.31 -521.83)"/><path class="cls-2" d="M977.48,555.54l1.75-30a3.15,3.15,0,0,0-1.53-2.89,3.22,3.22,0,0,0-.74-.31,3.09,3.09,0,0,1,.43,1.77l-1.75,30a3.13,3.13,0,0,1-1,2.17,3.12,3.12,0,0,1-3,.67,3.21,3.21,0,0,0,1.09,1.11,3.15,3.15,0,0,0,4.76-2.52Z" transform="translate(-957.31 -521.83)"/><path class="cls-3" d="M977.7,523.05a2.72,2.72,0,0,1,1.32,2.5l-1.74,30a2.73,2.73,0,0,1-2.88,2.56,2.77,2.77,0,0,1-1.25-.38,2.74,2.74,0,0,1-1.32-2.5l1.75-30a2.73,2.73,0,0,1,2.88-2.56,2.7,2.7,0,0,1,1.24.38Zm.43-.72h0a3.7,3.7,0,0,0-1.62-.5,3.58,3.58,0,0,0-3.77,3.35l-1.74,30a3.56,3.56,0,0,0,1.72,3.27,3.7,3.7,0,0,0,1.63.5,3.56,3.56,0,0,0,2.57-.9,3.47,3.47,0,0,0,1.19-2.46l1.75-30a3.55,3.55,0,0,0-1.73-3.27Z" transform="translate(-957.31 -521.83)"/><path class="cls-3" d="M977.42,526a1.16,1.16,0,0,1-2.31-.14,1.16,1.16,0,1,1,2.31.14Z" transform="translate(-957.31 -521.83)"/><path class="cls-3" d="M977.15,530.65a1.15,1.15,0,1,1-1.08-1.22A1.15,1.15,0,0,1,977.15,530.65Z" transform="translate(-957.31 -521.83)"/><path class="cls-3" d="M976.89,535.27a1.16,1.16,0,1,1-2.31-.13,1.15,1.15,0,0,1,1.22-1.09A1.16,1.16,0,0,1,976.89,535.27Z" transform="translate(-957.31 -521.83)"/><path class="cls-3" d="M976.62,539.89a1.16,1.16,0,1,1-2.31-.13,1.15,1.15,0,0,1,1.22-1.09A1.16,1.16,0,0,1,976.62,539.89Z" transform="translate(-957.31 -521.83)"/><path class="cls-3" d="M976.35,544.51a1.16,1.16,0,1,1-1.09-1.22A1.15,1.15,0,0,1,976.35,544.51Z" transform="translate(-957.31 -521.83)"/><path class="cls-3" d="M976.08,549.13A1.16,1.16,0,1,1,975,547.9,1.16,1.16,0,0,1,976.08,549.13Z" transform="translate(-957.31 -521.83)"/><path class="cls-3" d="M975.81,553.74a1.16,1.16,0,1,1-1.09-1.22A1.15,1.15,0,0,1,975.81,553.74Z" transform="translate(-957.31 -521.83)"/><path class="cls-5" d="M975.76,524.17c-.53.23-1,.22-1.16,0s.23-.64.76-.87,1-.22,1.16,0S976.29,523.93,975.76,524.17Z" transform="translate(-957.31 -521.83)"/><path class="cls-5" d="M1007.2,532.57c-.28.16-.58.18-.65,0s.1-.37.38-.53.58-.18.66-.05S1007.49,532.42,1007.2,532.57Z" transform="translate(-957.31 -521.83)"/><path class="cls-5" d="M1021.67,538.23l-5.08-1a.53.53,0,0,1-.42-.62h0a.54.54,0,0,1,.62-.41l5.08,1a.52.52,0,0,1,.41.61h0A.52.52,0,0,1,1021.67,538.23Z" transform="translate(-957.31 -521.83)"/><path class="cls-5" d="M986.56,528l-5-1.17a.52.52,0,0,1-.39-.63h0a.54.54,0,0,1,.63-.4l5,1.18a.53.53,0,0,1,.4.63h0A.53.53,0,0,1,986.56,528Z" transform="translate(-957.31 -521.83)"/></g></svg>